<svg xmlns="http://www.w3.org/2000/svg" width="400" height="300" viewBox="0 0 400 300" role="img" aria-label="Satellite imagery placeholder">
  <defs>
    <linearGradient id="h4" x1="0" y1="0" x2="0" y2="1"><stop offset="0" stop-color="#ffffff" stop-opacity="0.08"/><stop offset="1" stop-color="#000000" stop-opacity="0.16"/></linearGradient>
    <filter id="g4"><feTurbulence type="fractalNoise" baseFrequency="0.85" numOctaves="3" stitchTiles="stitch" result="n"/><feColorMatrix in="n" type="matrix" values="0 0 0 0 0  0 0 0 0 0  0 0 0 0 0  0 0 0 0.08 0"/></filter>
  </defs>
  <!-- forest / mountain -->
  <rect width="400" height="300" fill="#33482c"/>
  <!-- ridges -->
  <path d="M0,120 C 80,60 140,150 220,90 C 300,40 350,120 400,80 L400,300 L0,300 Z" fill="#3d5433"/>
  <path d="M0,180 C 90,130 150,210 240,160 C 320,120 360,190 400,150 L400,300 L0,300 Z" fill="#2c3f24"/>
  <path d="M0,240 C 100,205 160,260 250,225 C 330,195 370,245 400,220 L400,300 L0,300 Z" fill="#243519"/>
  <!-- tree canopy texture -->
  <g fill="#46603a" opacity="0.8">
    <circle cx="40" cy="100" r="14"/><circle cx="70" cy="115" r="11"/><circle cx="110" cy="95" r="13"/>
    <circle cx="180" cy="120" r="15"/><circle cx="230" cy="105" r="12"/><circle cx="300" cy="95" r="14"/>
    <circle cx="345" cy="115" r="11"/><circle cx="60" cy="175" r="13"/><circle cx="150" cy="185" r="14"/>
    <circle cx="260" cy="175" r="13"/><circle cx="330" cy="185" r="12"/>
  </g>
  <g fill="#26361d" opacity="0.7">
    <circle cx="90" cy="230" r="14"/><circle cx="200" cy="245" r="15"/><circle cx="310" cy="235" r="13"/>
  </g>
  <!-- mountain stream -->
  <path d="M210,-5 C 200,60 250,120 220,180 C 195,230 235,270 220,305" fill="none" stroke="#7ea6b8" stroke-width="5" opacity="0.75" stroke-linecap="round"/>
  <!-- clearing / trail -->
  <path d="M-5,150 C 90,140 140,175 250,150 C 320,135 370,150 405,140" fill="none" stroke="#7c7255" stroke-width="3" opacity="0.5"/>
  <rect width="400" height="300" fill="url(#h4)"/>
  <rect width="400" height="300" filter="url(#g4)"/>
</svg>
